<svg width="332" height="145" viewBox="0 0 332 145" fill="none" xmlns="http://www.w3.org/2000/svg">
<rect x="35.5749" y="126.575" width="59" height="90" rx="7" transform="rotate(-90 35.5749 126.575)" fill="#005C9F"/>
<path d="M120.028 64.0229C126.288 67.9404 126.288 77.0595 120.028 80.9771L49.1294 125.342C42.4691 129.509 33.8249 124.721 33.8249 116.865L33.8249 28.1353C33.8249 20.2785 42.4691 15.4905 49.1294 19.6582L120.028 64.0229Z" fill="#DB7841"/>
<g filter="url(#filter0_d_1_8)">
<path d="M107.859 56.2152C113.533 59.7682 114.181 67.7849 109.152 72.2034L50.6239 123.62C44.1622 129.297 34.0239 124.709 34.0239 116.108L34.0239 28.0424C34.0239 20.1843 42.6709 15.3965 49.3311 19.5668L107.859 56.2152Z" fill="#D25C19"/>
</g>
<g filter="url(#filter1_d_1_8)">
<path d="M152.515 56.3636H160.415L170.994 82.1861H171.412L181.991 56.3636H189.891V92H183.697V67.5174H183.366L173.517 91.8956H168.889L159.04 67.4652H158.71V92H152.515V56.3636ZM210.261 92.522C207.651 92.522 205.389 91.9478 203.475 90.7994C201.561 89.6509 200.076 88.0443 199.02 85.9794C197.976 83.9145 197.454 81.5017 197.454 78.7408C197.454 75.9799 197.976 73.5612 199.02 71.4847C200.076 69.4083 201.561 67.7958 203.475 66.6474C205.389 65.4989 207.651 64.9247 210.261 64.9247C212.871 64.9247 215.133 65.4989 217.047 66.6474C218.961 67.7958 220.44 69.4083 221.485 71.4847C222.54 73.5612 223.068 75.9799 223.068 78.7408C223.068 81.5017 222.54 83.9145 221.485 85.9794C220.44 88.0443 218.961 89.6509 217.047 90.7994C215.133 91.9478 212.871 92.522 210.261 92.522ZM210.296 87.4759C211.711 87.4759 212.894 87.0872 213.846 86.31C214.797 85.5212 215.505 84.4656 215.969 83.1431C216.444 81.8207 216.682 80.3474 216.682 78.7234C216.682 77.0877 216.444 75.6087 215.969 74.2862C215.505 72.9522 214.797 71.8907 213.846 71.1019C212.894 70.3131 211.711 69.9187 210.296 69.9187C208.846 69.9187 207.639 70.3131 206.677 71.1019C205.725 71.8907 205.012 72.9522 204.536 74.2862C204.072 75.6087 203.84 77.0877 203.84 78.7234C203.84 80.3474 204.072 81.8207 204.536 83.1431C205.012 84.4656 205.725 85.5212 206.677 86.31C207.639 87.0872 208.846 87.4759 210.296 87.4759ZM253.339 65.2727L243.821 92H236.86L227.342 65.2727H234.059L240.201 85.1268H240.48L246.639 65.2727H253.339ZM259.658 92V65.2727H265.957V92H259.658ZM262.824 61.4794C261.827 61.4794 260.968 61.1488 260.249 60.4876C259.53 59.8147 259.17 59.0085 259.17 58.0689C259.17 57.1177 259.53 56.3114 260.249 55.6502C260.968 54.9774 261.827 54.641 262.824 54.641C263.834 54.641 264.692 54.9774 265.4 55.6502C266.119 56.3114 266.479 57.1177 266.479 58.0689C266.479 59.0085 266.119 59.8147 265.4 60.4876C264.692 61.1488 263.834 61.4794 262.824 61.4794ZM286.226 92.522C283.547 92.522 281.232 91.9652 279.283 90.8516C277.346 89.7263 275.856 88.1371 274.811 86.0838C273.767 84.0189 273.245 81.5887 273.245 78.793C273.245 76.0437 273.767 73.6308 274.811 71.5543C275.867 69.4663 277.34 67.8422 279.231 66.6822C281.122 65.5105 283.344 64.9247 285.896 64.9247C287.543 64.9247 289.097 65.1915 290.559 65.7251C292.032 66.2472 293.332 67.0592 294.457 68.1612C295.594 69.2633 296.487 70.6669 297.136 72.3722C297.786 74.0658 298.111 76.0843 298.111 78.4276V80.359H276.204V76.1133H292.073C292.061 74.9068 291.8 73.8338 291.29 72.8942C290.779 71.9429 290.066 71.1947 289.15 70.6495C288.245 70.1043 287.189 69.8317 285.983 69.8317C284.695 69.8317 283.564 70.1449 282.59 70.7713C281.615 71.3861 280.855 72.1982 280.31 73.2074C279.776 74.205 279.504 75.3013 279.492 76.4961V80.2024C279.492 81.7569 279.776 83.0909 280.345 84.2045C280.913 85.3066 281.708 86.1534 282.729 86.745C283.75 87.325 284.944 87.6151 286.313 87.6151C287.23 87.6151 288.059 87.4875 288.802 87.2322C289.544 86.9654 290.188 86.5768 290.733 86.0664C291.278 85.556 291.69 84.9238 291.968 84.1697L297.85 84.831C297.479 86.3854 296.771 87.7427 295.727 88.9027C294.695 90.0511 293.372 90.9444 291.76 91.5824C290.147 92.2088 288.303 92.522 286.226 92.522ZM326.524 72.3374L320.782 72.9638C320.619 72.3838 320.335 71.8385 319.929 71.3281C319.535 70.8177 319.001 70.4059 318.328 70.0927C317.656 69.7795 316.832 69.6229 315.858 69.6229C314.547 69.6229 313.445 69.9071 312.551 70.4755C311.67 71.0439 311.235 71.7805 311.246 72.6854C311.235 73.4626 311.519 74.0948 312.099 74.582C312.691 75.0692 313.665 75.4695 315.022 75.7827L319.581 76.7571C322.11 77.3023 323.989 78.1665 325.219 79.3498C326.46 80.533 327.087 82.0817 327.098 83.9957C327.087 85.6778 326.594 87.1626 325.619 88.4503C324.656 89.7263 323.317 90.724 321.6 91.4432C319.883 92.1624 317.911 92.522 315.684 92.522C312.412 92.522 309.779 91.8376 307.784 90.4688C305.788 89.0883 304.599 87.1684 304.217 84.7092L310.359 84.1175C310.637 85.324 311.229 86.2346 312.134 86.8494C313.039 87.4643 314.216 87.7717 315.666 87.7717C317.163 87.7717 318.363 87.4643 319.268 86.8494C320.184 86.2346 320.643 85.4748 320.643 84.57C320.643 83.8043 320.347 83.1721 319.755 82.6733C319.175 82.1745 318.27 81.7917 317.041 81.5249L312.482 80.5678C309.918 80.0342 308.021 79.1352 306.792 77.8707C305.562 76.5947 304.953 74.9822 304.965 73.0334C304.953 71.3861 305.4 69.9593 306.305 68.7528C307.221 67.5348 308.491 66.5952 310.115 65.9339C311.751 65.2611 313.636 64.9247 315.771 64.9247C318.903 64.9247 321.368 65.5917 323.166 66.9258C324.975 68.2598 326.095 70.0637 326.524 72.3374Z" fill="white"/>
</g>
<defs>
<filter id="filter0_d_1_8" x="30.0239" y="18.0264" width="86.5283" height="116.101" filterUnits="userSpaceOnUse" color-interpolation-filters="sRGB">
<feFlood flood-opacity="0" result="BackgroundImageFix"/>
<feColorMatrix in="SourceAlpha" type="matrix" values="0 0 0 0 0 0 0 0 0 0 0 0 0 0 0 0 0 0 127 0" result="hardAlpha"/>
<feOffset dy="4"/>
<feGaussianBlur stdDeviation="2"/>
<feComposite in2="hardAlpha" operator="out"/>
<feColorMatrix type="matrix" values="0 0 0 0 0 0 0 0 0 0 0 0 0 0 0 0 0 0 0.25 0"/>
<feBlend mode="normal" in2="BackgroundImageFix" result="effect1_dropShadow_1_8"/>
<feBlend mode="normal" in="SourceGraphic" in2="effect1_dropShadow_1_8" result="shape"/>
</filter>
<filter id="filter1_d_1_8" x="148.515" y="54.641" width="182.583" height="45.881" filterUnits="userSpaceOnUse" color-interpolation-filters="sRGB">
<feFlood flood-opacity="0" result="BackgroundImageFix"/>
<feColorMatrix in="SourceAlpha" type="matrix" values="0 0 0 0 0 0 0 0 0 0 0 0 0 0 0 0 0 0 127 0" result="hardAlpha"/>
<feOffset dy="4"/>
<feGaussianBlur stdDeviation="2"/>
<feComposite in2="hardAlpha" operator="out"/>
<feColorMatrix type="matrix" values="0 0 0 0 0 0 0 0 0 0 0 0 0 0 0 0 0 0 0.25 0"/>
<feBlend mode="normal" in2="BackgroundImageFix" result="effect1_dropShadow_1_8"/>
<feBlend mode="normal" in="SourceGraphic" in2="effect1_dropShadow_1_8" result="shape"/>
</filter>
</defs>
</svg>
